<?xml version="1.0" encoding="UTF-8" standalone="no"?>
<svg
   width="733.90582"
   height="195.77821"
   viewBox="0 0 733.90582 195.77822"
   version="1.1"
   id="svg2"
   xmlns="http://www.w3.org/2000/svg"
   xmlns:svg="http://www.w3.org/2000/svg">
  <defs
     id="defs1" />
  <g
     id="g1"
     transform="translate(-146.62214,-76.838202)">
    <path
       style="font-weight:bold;font-size:160px;font-family:'Noto Sans';fill:#ffffff;stroke-width:0.781045"
       d="m 418.02405,208.09817 -21.49436,-69.98162 h -0.49987 q 0.12497,2.49934 0.37491,7.49803 0.24993,4.99869 0.49986,10.74718 0.24994,5.62352 0.24994,10.24731 v 41.4891 H 380.28396 V 118.8716 h 25.74324 l 21.11945,68.23209 h 0.37491 l 22.36912,-68.23209 h 25.74324 v 89.22657 h -17.62037 v -42.23891 q 0,-4.24888 0.12497,-9.74744 0.24993,-5.49855 0.3749,-10.37227 0.24993,-4.99869 0.3749,-7.49804 h -0.49987 l -22.99396,69.85666 z m 108.47162,-69.48175 q 12.74665,0 19.49488,6.12339 6.8732,5.99842 6.8732,17.87031 v 45.48805 h -13.12156 l -3.62404,-9.24757 h -0.49987 q -4.49882,5.49856 -9.37254,7.9979 -4.74876,2.49935 -13.37149,2.49935 -8.99764,0 -14.99607,-5.24863 -5.99842,-5.24862 -5.99842,-16.12076 0,-10.62221 7.74797,-15.9958 7.74796,-5.49856 23.11893,-6.1234 l 11.37201,-0.3749 v -2.12444 q 0,-6.12339 -2.87425,-8.49777 -2.74927,-2.49934 -7.62299,-2.49934 -4.62379,0 -9.49751,1.4996 -4.87372,1.49961 -9.62247,3.62405 l -5.49856,-12.87162 q 5.37359,-2.74928 12.24678,-4.37385 6.99817,-1.62457 15.246,-1.62457 z m 0.49987,38.23996 q -8.99764,0.24993 -12.49672,2.87424 -3.37411,2.62431 -3.37411,7.37307 0,4.37385 2.37437,6.49829 2.49935,1.99947 6.62326,1.99947 5.87346,0 9.87241,-3.49908 4.12392,-3.49908 4.12392,-9.99737 v -5.62353 z m 82.85336,-38.23996 q 11.24705,0 17.74534,5.99842 6.4983,5.87346 6.4983,18.99501 v 44.48832 h -18.74508 v -39.73956 q 0,-14.74613 -10.99711,-14.74613 -8.49777,0 -11.62195,5.87346 -2.99921,5.74849 -2.99921,16.62063 v 31.9916 h -18.87005 v -68.23208 h 14.49619 l 2.62432,9.1226 h 0.7498 q 6.74823,-10.37227 21.11945,-10.37227 z m 41.61403,-16.37071 q 0,-5.37358 2.87425,-7.24809 2.99921,-1.99948 7.37306,-1.99948 4.12392,0 7.12313,1.99948 3.12418,1.87451 3.12418,7.24809 0,5.12366 -3.12418,7.12313 -2.99921,1.99948 -7.12313,1.99948 -4.37385,0 -7.37306,-1.99948 -2.87425,-1.99947 -2.87425,-7.12313 z m -3.49908,115.84459 q -2.99921,0 -6.12339,-0.49987 -3.24915,-0.3749 -5.49856,-0.99974 V 221.7196 q 1.99948,0.62483 3.74902,0.87477 1.74954,0.3749 3.99895,0.3749 3.37411,0 5.62352,-2.12444 2.37438,-2.12445 2.37438,-8.3728 v -72.60594 h 18.87004 v 75.60515 q 0,6.24836 -2.24941,11.37201 -2.24941,5.12366 -7.37306,8.12287 -4.99869,3.12418 -13.37149,3.12418 z m 71.85617,-99.47388 q 12.74666,0 19.49488,6.12339 6.8732,5.99842 6.8732,17.87031 v 45.48805 h -13.12155 l -3.62405,-9.24757 h -0.49987 q -4.49882,5.49856 -9.37254,7.9979 -4.74875,2.49935 -13.37149,2.49935 -8.99764,0 -14.99606,-5.24863 -5.99843,-5.24862 -5.99843,-16.12076 0,-10.62221 7.74797,-15.9958 7.74796,-5.49856 23.11893,-6.1234 l 11.37201,-0.3749 v -2.12444 q 0,-6.12339 -2.87424,-8.49777 -2.74928,-2.49934 -7.623,-2.49934 -4.62379,0 -9.49751,1.4996 -4.87372,1.49961 -9.62247,3.62405 l -5.49856,-12.87162 q 5.37359,-2.74928 12.24679,-4.37385 6.99816,-1.62457 15.24599,-1.62457 z m 0.49987,38.23996 q -8.99764,0.24993 -12.49672,2.87424 -3.37411,2.62431 -3.37411,7.37307 0,4.37385 2.37438,6.49829 2.49934,1.99947 6.62326,1.99947 5.87345,0 9.8724,-3.49908 4.12392,-3.49908 4.12392,-9.99737 v -5.62353 z m 81.60369,-38.23996 q 1.87451,0 3.99895,0.24993 2.12445,0.24994 3.49909,0.49987 l -1.87451,17.62037 q -1.37464,-0.3749 -3.24915,-0.49987 -1.87451,-0.24993 -4.49882,-0.24993 -3.87398,0 -7.74796,1.62457 -3.87399,1.62458 -6.4983,5.37359 -2.49934,3.74902 -2.49934,10.24731 v 34.61591 h -18.87005 v -68.23208 h 14.37123 l 2.74928,11.49698 h 0.87477 q 2.99921,-5.24862 8.12287,-8.99764 5.24862,-3.74901 11.62194,-3.74901 z m 78.60437,35.24074 q 0,16.99554 -8.99763,26.24311 -8.87267,9.24758 -24.24364,9.24758 -9.62247,0 -17.1205,-4.12392 -7.37307,-4.12392 -11.62195,-11.99685 -4.24889,-7.9979 -4.24889,-19.36992 0,-16.99553 8.87267,-26.11814 8.99764,-9.1226 24.49357,-9.1226 9.62248,0 16.99554,4.12391 7.37307,3.99895 11.62195,11.87189 4.24888,7.87293 4.24888,19.24494 z m -46.98766,0 q 0,9.99738 3.24915,15.6209 3.24914,5.49856 10.74718,5.49856 7.24809,0 10.49724,-5.49856 3.24915,-5.62352 3.24915,-15.6209 0,-10.12234 -3.24915,-15.49593 -3.24915,-5.37359 -10.62221,-5.37359 -7.37307,0 -10.62221,5.37359 -3.24915,5.37359 -3.24915,15.49593 z"
       id="text1"
       aria-label="Manjaro" />
    <path
       id="rect1340-7"
       style="fill:#35bfa4;fill-rule:evenodd;stroke-width:8.89899;stroke-linecap:round;stroke-linejoin:round;paint-order:stroke fill markers"
       d="m 164.42014,76.838202 c -9.86008,0 -17.798,7.937905 -17.798,17.798038 v 160.18215 c 0,9.86012 7.93792,17.79803 17.798,17.79803 h 35.59609 V 130.23223 h 71.19202 V 76.838202 Z m 124.58615,0 V 272.61642 h 35.59606 c 9.86005,0 17.79795,-7.93791 17.79795,-17.79803 V 94.63624 c 0,-9.860133 -7.9379,-17.798038 -17.79795,-17.798038 z m -71.19206,71.192058 v 124.58616 h 53.39402 V 148.03026 Z" />
  </g>
</svg>
